# Blender 3.3.1
# www.blender.org
mtllib tree2.mtl
o TreeR2
v -1.210258 4.486845 -0.079843
v -0.523808 4.888216 1.069464
v -1.504828 4.873737 1.580453
v -2.146361 4.501764 0.090663
v -1.040454 6.030629 1.953792
v -2.704641 5.229269 -0.528020
v -3.191540 6.144281 -0.141480
v -1.556630 6.270366 -1.327884
v -1.058936 5.321256 -1.053597
v -0.219099 6.195181 -0.579936
v -2.564570 6.068433 1.781421
v -2.709846 5.138825 1.199641
v -1.137897 7.045106 -0.967238
v -2.779259 6.952584 -0.428328
v -2.019550 7.681762 -0.089423
v -0.114658 7.012387 0.427377
v -0.956371 7.683109 0.683032
v -1.123613 6.899653 1.828206
v -2.770431 6.862692 1.299356
v -1.892475 7.698030 0.853536
v 0.088808 6.040591 0.915174
v -0.047030 5.287672 0.349250
v 0.024117 2.119799 -0.050891
v 0.193864 2.207969 0.109588
v 0.121003 1.664333 -0.025014
v -0.080946 2.578448 0.167792
v -0.143847 2.904033 0.082986
v -0.301730 2.845065 -0.016664
v -0.225410 2.503413 0.031218
v 0.065031 2.578448 0.013381
v 0.115496 2.695887 0.056189
v -0.197227 2.845065 -0.182233
v -0.079432 2.503413 -0.123191
v -0.039347 2.904033 -0.082583
v 0.055532 2.864935 -0.118614
v -0.168521 3.390508 -0.164746
v -0.235762 3.640712 -0.438323
v -0.242813 3.780973 -0.323089
v -0.118247 1.664333 0.150855
v 0.057622 1.664332 0.390105
v -0.121287 2.053734 0.436257
v -0.023115 2.217231 0.283580
v -0.147412 2.119799 0.130547
v -0.518993 3.699822 0.018352
v -0.273592 3.390508 0.001727
v -0.386312 3.802241 -0.041913
v 0.296872 1.664333 0.214236
v 0.160707 2.226492 0.351622
v -0.417088 3.640712 -0.449418
v -0.327264 3.331219 -0.264937
v -0.432335 3.331219 -0.098466
v -0.592655 3.699822 -0.143821
v 0.107985 2.053734 0.511746
v -0.286925 4.914011 -1.781459
v -0.202550 4.914011 -1.776296
v -0.199269 4.848743 -1.829917
v -0.283646 4.848743 -1.835080
v -1.154160 4.890565 0.255461
v -1.189119 4.890565 0.178494
v -1.252090 4.841957 0.207095
v -1.217130 4.841957 0.284061
v -0.211945 3.928043 1.599399
v -0.293383 3.934794 1.577762
v -0.315711 3.897072 1.650043
v -0.234273 3.890322 1.671678
v 1.555872 3.602171 -0.265073
v 1.570163 3.607703 -0.181941
v 1.620197 3.539689 -0.186015
v 1.605906 3.534157 -0.269149
v 0.038144 -0.345572 0.517684
v -0.245827 -0.345572 0.131375
v 0.140481 -0.345573 -0.152593
v 0.424451 -0.345573 0.233714
v 0.108282 2.695887 -0.120765
v 0.062745 2.864935 0.058339
v -0.424138 3.780973 -0.334184
v -0.459973 3.802241 -0.204085
v -0.291334 2.817213 1.122582
v -0.161070 2.812116 1.160827
v -0.257537 2.897245 1.018132
v -0.127275 2.892147 1.056375
v 0.883770 2.972182 -0.008647
v 0.871780 2.969140 -0.119045
v 0.833579 3.071252 -0.005925
v 0.821589 3.068209 -0.116326
v -0.184670 4.374281 -1.289491
v 0.524844 5.196127 -0.810471
v -0.241661 5.733995 -0.736356
v -0.920650 4.688449 -1.401629
v 0.476037 6.441751 -1.189097
v -1.182487 4.735706 -2.302474
v -1.292922 5.532486 -2.787523
v 0.000210 4.460120 -3.150008
v 0.136185 4.088318 -2.298180
v 1.076416 4.650949 -2.441005
v -0.736554 6.657731 -1.613711
v -1.142769 5.853024 -1.349563
v 0.571309 4.986160 -3.373834
v -0.743512 5.641347 -3.369984
v 0.085783 6.060870 -3.506320
v 1.434981 5.695936 -2.420780
v 0.965964 6.361164 -2.889615
v 0.653954 6.789789 -1.827915
v -0.692434 6.756057 -2.414552
v 0.229987 6.675332 -3.001756
v 1.338240 5.517124 -1.503720
v 0.990898 4.805536 -1.342614
v 1.105161 3.482436 -0.196000
v 1.589382 3.412515 0.242591
v 1.496325 3.906048 0.377671
v 0.972315 3.909591 -0.203300
v 2.105114 3.911282 0.317273
v 1.052709 4.148273 -0.658325
v 1.396330 4.530823 -0.736181
v 1.533372 3.671243 -1.120595
v 1.293739 3.378615 -0.763621
v 1.875228 3.202411 -0.692048
v 1.815479 4.541146 0.118007
v 1.318040 4.397470 0.069034
v 1.979822 3.645290 -1.107179
v 1.741693 4.415020 -0.995955
v 2.227644 4.234392 -0.954658
v 2.395073 3.412852 -0.447560
v 2.554794 3.896149 -0.554288
v 2.413589 4.038923 0.071326
v 2.009777 4.658299 -0.267598
v 2.421948 4.323304 -0.561587
v 2.130779 3.274919 -0.021407
v 1.708044 3.152137 -0.101338
v -0.153557 3.350948 1.494372
v 0.160072 3.369792 2.164594
v -0.384456 3.378457 2.380675
v -0.651801 3.410729 1.541417
v -0.090274 3.890568 2.735976
v -0.858255 3.897257 1.288554
v -1.077147 4.357361 1.577813
v -0.142500 4.433907 1.058496
v 0.039193 3.878796 1.104573
v 0.504957 4.205796 1.493381
v -0.872949 4.047070 2.583365
v -0.973042 3.650780 2.163581
v 0.103959 4.755721 1.358060
v -0.792078 4.772026 1.549012
v -0.369205 5.046873 1.847199
v 0.550309 4.498364 2.115781
v 0.138452 4.876113 2.291712
v -0.069860 4.355618 2.775033
v -0.899504 4.524749 2.424754
v -0.359793 4.935895 2.338758
v 0.563798 3.929482 2.255317
v 0.479064 3.620911 1.865899
vn 0.2244 -0.9327 -0.2822
vn 0.5627 -0.7068 0.4287
vn 0.0089 -0.7123 0.7018
vn -0.3547 -0.9213 -0.1595
vn 0.3150 -0.0816 0.9456
vn -0.6592 -0.4825 -0.5768
vn -0.9616 0.0094 -0.2742
vn -0.0762 0.0829 -0.9936
vn 0.2858 -0.4820 -0.8283
vn 0.8078 0.0623 -0.5862
vn -0.5799 -0.0156 0.8145
vn -0.7197 -0.5444 0.4310
vn 0.2660 0.6014 -0.7534
vn -0.7076 0.4960 -0.5033
vn -0.2821 0.9068 -0.3133
vn 0.8342 0.5514 0.0035
vn 0.3965 0.9064 0.1459
vn 0.2488 0.4832 0.8394
vn -0.7380 0.4600 0.4937
vn -0.2676 0.9027 0.3370
vn 0.9352 0.0172 0.3537
vn 0.8701 -0.4747 -0.1322
vn 0.0059 -0.0962 -0.9953
vn 0.9184 0.3558 -0.1730
vn 0.1671 0.0126 -0.9859
vn -0.0862 0.1448 0.9857
vn 0.0076 0.3394 0.9406
vn -0.9592 -0.2043 0.1954
vn -0.9805 -0.1913 0.0454
vn 0.9561 -0.2882 0.0529
vn 0.5518 -0.4495 0.7025
vn -0.2845 -0.1511 -0.9467
vn -0.0754 -0.2955 -0.9524
vn 0.5334 0.7957 -0.2870
vn 0.0648 0.6617 -0.7469
vn 0.9826 0.0915 -0.1616
vn 0.7738 -0.3777 -0.5085
vn 0.7517 0.5952 0.2839
vn -0.9766 -0.1093 -0.1855
vn -0.1956 -0.2065 0.9587
vn -0.8381 -0.2423 0.4887
vn -0.5268 0.8286 0.1897
vn -0.9831 -0.0210 -0.1819
vn -0.2633 -0.2392 0.9346
vn 0.2430 0.1314 0.9611
vn 0.6783 0.5127 0.5263
vn 0.9896 0.0119 0.1436
vn 0.7930 0.6091 0.0050
vn -0.5960 -0.4436 -0.6694
vn -0.2608 -0.4474 -0.8555
vn -0.9119 -0.3654 0.1867
vn -0.9355 -0.2866 -0.2064
vn 0.6136 -0.2565 0.7468
vn -0.5635 0.8160 -0.1287
vn 0.5750 0.8160 -0.0590
vn 0.6193 -0.0646 -0.7825
vn -0.5192 -0.0646 -0.8522
vn 0.3465 0.8138 0.4666
vn -0.1234 0.8138 -0.5679
vn -0.9699 0.1604 -0.1835
vn -0.4999 0.1604 0.8511
vn 0.6752 0.7336 -0.0770
vn -0.4272 0.8258 -0.3681
vn -0.7293 0.3131 0.6083
vn 0.3713 0.2241 0.9011
vn 0.0232 0.7688 -0.6391
vn 0.2198 0.8441 0.4891
vn 0.8967 -0.0809 0.4351
vn 0.7044 -0.1535 -0.6930
vn -0.1257 -0.5535 0.8233
vn -0.8233 -0.5535 -0.1257
vn 0.1257 -0.5535 -0.8233
vn 0.8233 -0.5535 0.1257
vn 0.4160 -0.4752 -0.7753
vn 0.1430 0.6949 0.7048
vn -0.6164 0.7838 -0.0753
vn -0.1705 0.8129 -0.5569
vn -0.8562 -0.3528 0.3774
vn 0.4363 -0.4275 0.7917
vn -0.5475 0.4638 -0.6965
vn 0.8653 0.4153 -0.2808
vn 0.4340 -0.6122 0.6610
vn 0.3051 -0.6759 -0.6709
vn -0.1742 0.6158 0.7684
vn -0.3490 0.6068 -0.7141
vn -0.1177 -0.8023 0.5852
vn 0.3104 -0.1952 0.9303
vn -0.1990 0.1517 0.9682
vn -0.6523 -0.5585 0.5124
vn 0.3135 0.6251 0.7148
vn -0.8101 -0.5676 -0.1467
vn -0.9138 0.0216 -0.4056
vn -0.0909 -0.7202 -0.6878
vn 0.0663 -0.9951 -0.0736
vn 0.7524 -0.6240 -0.2109
vn -0.5116 0.7755 0.3699
vn -0.8399 0.2087 0.5010
vn 0.4174 -0.3215 -0.8499
vn -0.5215 0.0527 -0.8516
vn 0.0264 0.3309 -0.9433
vn 0.9706 0.1109 -0.2134
vn 0.6859 0.5293 -0.4994
vn 0.4371 0.8750 0.2079
vn -0.5147 0.8279 -0.2229
vn 0.0696 0.8391 -0.5395
vn 0.9017 0.0627 0.4278
vn 0.6512 -0.5825 0.4865
vn -0.8076 -0.5469 0.2206
vn -0.2225 -0.5665 0.7934
vn -0.3377 0.0219 0.9410
vn -0.9741 0.0213 0.2250
vn 0.4035 -0.0073 0.9150
vn -0.8751 0.2842 -0.3918
vn -0.4625 0.7887 -0.4050
vn -0.3288 -0.2245 -0.9173
vn -0.6062 -0.6540 -0.4525
vn 0.1440 -0.9034 -0.4040
vn 0.0677 0.7818 0.6199
vn -0.5756 0.6430 0.5052
vn 0.3301 -0.3181 -0.8887
vn -0.0390 0.6172 -0.7859
vn 0.5420 0.4027 -0.7376
vn 0.7871 -0.6069 -0.1103
vn 0.9725 -0.0676 -0.2229
vn 0.8162 0.1724 0.5515
vn 0.2899 0.9523 0.0949
vn 0.7861 0.5954 -0.1663
vn 0.5045 -0.7321 0.4577
vn -0.1172 -0.9613 0.2493
vn 0.1403 -0.8706 -0.4716
vn 0.4187 -0.8576 0.2986
vn -0.1596 -0.8424 0.5146
vn -0.4434 -0.8024 -0.3995
vn 0.1908 -0.3318 0.9238
vn -0.6417 -0.2433 -0.7274
vn -0.9149 0.2088 -0.3454
vn 0.0504 0.3089 -0.9497
vn 0.3191 -0.3248 -0.8903
vn 0.8719 0.0714 -0.4845
vn -0.6681 -0.1095 0.7359
vn -0.8258 -0.5153 0.2293
vn 0.4230 0.7068 -0.5670
vn -0.5786 0.6916 -0.4323
vn -0.1311 0.9845 -0.1163
vn 0.8891 0.4102 0.2030
vn 0.4844 0.7849 0.3864
vn 0.2067 0.2460 0.9470
vn -0.7287 0.4427 0.5225
vn -0.1928 0.8358 0.5140
vn 0.8829 -0.1967 0.4265
vn 0.8152 -0.5553 -0.1645
vt 0.809069 0.780511
vt 0.824397 0.788282
vt 0.838521 0.789188
vt 0.817118 0.781594
vt 0.841034 0.809903
vt 0.808866 0.794419
vt 0.817118 0.811487
vt 0.787770 0.811487
vt 0.790742 0.794419
vt 0.793203 0.809903
vt 0.846466 0.811487
vt 0.838395 0.794419
vt 0.790742 0.825386
vt 0.809069 0.825386
vt 0.809840 0.838212
vt 0.808866 0.825386
vt 0.817118 0.838212
vt 0.838395 0.825386
vt 0.838521 0.825386
vt 0.825167 0.839294
vt 0.817118 0.808318
vt 0.809069 0.794419
vt 0.817447 0.445033
vt 0.816189 0.446697
vt 0.817836 0.436433
vt 0.812867 0.453692
vt 0.813760 0.459839
vt 0.814094 0.458726
vt 0.813937 0.452275
vt 0.816712 0.453692
vt 0.816421 0.455909
vt 0.817774 0.458726
vt 0.817783 0.452275
vt 0.817440 0.459839
vt 0.818856 0.459101
vt 0.817724 0.469024
vt 0.821760 0.473748
vt 0.819759 0.476396
vt 0.812835 0.436433
vt 0.810302 0.436433
vt 0.808000 0.443785
vt 0.811409 0.446872
vt 0.812928 0.445033
vt 0.811653 0.474864
vt 0.814024 0.469024
vt 0.813799 0.476798
vt 0.815304 0.436433
vt 0.811829 0.447047
vt 0.820403 0.473748
vt 0.818060 0.467905
vt 0.814360 0.467905
vt 0.813758 0.474864
vt 0.808682 0.443785
vt 0.843955 0.497788
vt 0.844586 0.497788
vt 0.845518 0.496556
vt 0.844886 0.496556
vt 0.802247 0.497345
vt 0.803246 0.497345
vt 0.802227 0.496428
vt 0.801228 0.496428
vt 0.787630 0.479173
vt 0.787301 0.479300
vt 0.785893 0.478588
vt 0.786222 0.478461
vt 0.834106 0.473020
vt 0.832827 0.473125
vt 0.833322 0.471841
vt 0.834601 0.471736
vt 0.807987 0.406298
vt 0.812076 0.406298
vt 0.820152 0.406298
vt 0.816062 0.406298
vt 0.819341 0.455909
vt 0.815936 0.459101
vt 0.818401 0.476396
vt 0.815904 0.476798
vt 0.794988 0.458200
vt 0.795453 0.458104
vt 0.797036 0.459711
vt 0.797501 0.459615
vt 0.824059 0.461126
vt 0.825817 0.461068
vt 0.823586 0.462996
vt 0.825344 0.462939
vt 0.809069 0.780511
vt 0.824397 0.788282
vt 0.838521 0.789188
vt 0.817118 0.781594
vt 0.841034 0.809903
vt 0.808866 0.794419
vt 0.817118 0.811487
vt 0.787770 0.811487
vt 0.790742 0.794419
vt 0.793203 0.809903
vt 0.846466 0.811487
vt 0.838395 0.794419
vt 0.790742 0.825386
vt 0.809069 0.825386
vt 0.809840 0.838212
vt 0.808866 0.825386
vt 0.817118 0.838212
vt 0.838395 0.825386
vt 0.838521 0.825386
vt 0.825167 0.839294
vt 0.817118 0.808318
vt 0.809069 0.794419
vt 0.809069 0.780511
vt 0.824397 0.788282
vt 0.838521 0.789188
vt 0.817118 0.781594
vt 0.841034 0.809903
vt 0.808866 0.794419
vt 0.817118 0.811487
vt 0.787770 0.811487
vt 0.790742 0.794419
vt 0.793203 0.809903
vt 0.846466 0.811487
vt 0.838395 0.794419
vt 0.790742 0.825386
vt 0.809069 0.825386
vt 0.809840 0.838212
vt 0.808866 0.825386
vt 0.817118 0.838212
vt 0.838395 0.825386
vt 0.838521 0.825386
vt 0.825167 0.839294
vt 0.817118 0.808318
vt 0.809069 0.794419
vt 0.809069 0.780511
vt 0.824397 0.788282
vt 0.838521 0.789188
vt 0.817118 0.781594
vt 0.841034 0.809903
vt 0.808866 0.794419
vt 0.817118 0.811487
vt 0.787770 0.811487
vt 0.790742 0.794419
vt 0.793203 0.809903
vt 0.846466 0.811487
vt 0.838395 0.794419
vt 0.790742 0.825386
vt 0.809069 0.825386
vt 0.809840 0.838212
vt 0.808866 0.825386
vt 0.817118 0.838212
vt 0.838395 0.825386
vt 0.838521 0.825386
vt 0.825167 0.839294
vt 0.817118 0.808318
vt 0.809069 0.794419
s 1
usemtl GRADIENT.005
f 1/1/1 2/2/2 3/3/3
f 1/1/1 3/3/3 4/4/4
f 3/3/3 2/2/2 5/5/5
f 6/6/6 7/7/7 8/8/8
f 9/9/9 8/8/8 10/10/10
f 3/3/3 5/5/5 11/11/11
f 12/12/12 11/11/11 7/7/7
f 13/13/13 14/14/14 15/15/15
f 16/16/16 13/13/13 17/17/17
f 18/18/18 16/16/16 17/17/17
f 19/19/19 18/18/18 20/20/20
f 14/14/14 19/19/19 15/15/15
f 15/15/15 19/19/19 20/20/20
f 20/20/20 18/18/18 17/17/17
f 17/17/17 15/15/15 20/20/20
f 17/17/17 13/13/13 15/15/15
f 7/7/7 19/19/19 14/14/14
f 7/7/7 11/11/11 19/19/19
f 11/11/11 18/18/18 19/19/19
f 11/11/11 5/5/5 18/18/18
f 21/21/21 16/16/16 18/18/18
f 10/10/10 13/13/13 16/16/16
f 10/10/10 8/8/8 13/13/13
f 8/8/8 14/14/14 13/13/13
f 8/8/8 7/7/7 14/14/14
f 12/12/12 3/3/3 11/11/11
f 5/5/5 21/21/21 18/18/18
f 5/5/5 2/2/2 21/21/21
f 2/2/2 22/22/22 21/21/21
f 21/21/21 10/10/10 16/16/16
f 21/21/21 22/22/22 10/10/10
f 22/22/22 9/9/9 10/10/10
f 9/9/9 6/6/6 8/8/8
f 6/6/6 12/12/12 7/7/7
f 4/4/4 3/3/3 12/12/12
f 2/2/2 1/1/1 22/22/22
f 1/1/1 9/9/9 22/22/22
f 6/6/6 4/4/4 12/12/12
f 1/1/1 4/4/4 9/9/9
f 4/4/4 6/6/6 9/9/9
f 23/23/23 24/24/24 25/25/25
f 26/26/26 27/27/27 28/28/28 29/29/29
f 30/30/30 31/31/31 26/26/26
f 32/32/32 33/33/33 29/29/29 28/28/28
f 34/34/34 35/35/35 32/32/32
f 36/36/36 37/37/37 38/38/38
f 39/39/39 40/40/40 41/41/41
f 42/42/42 43/43/43 41/41/41
f 43/43/43 39/39/39 41/41/41
f 44/44/44 45/45/45 46/46/46
f 25/25/25 24/24/24 47/47/47
f 24/24/24 42/42/42 48/48/48
f 49/49/49 50/50/50 51/51/51 52/52/52
f 36/36/36 38/38/38 46/46/46 45/45/45
f 43/43/43 23/23/23 25/25/25 39/39/39
f 24/24/24 48/48/48 53/53/53 47/47/47
f 54/54/54 55/55/55 56/56/56 57/57/57
f 58/58/58 59/59/59 60/60/60 61/61/61
f 62/62/62 63/63/63 64/64/64 65/65/65
f 66/66/66 67/67/67 68/68/68 69/69/69
f 70/70/70 71/71/71 72/72/72 73/73/73
f 40/40/40 47/47/47 53/53/53 41/41/41
f 74/74/74 33/33/33 32/32/32 35/35/35
f 51/51/51 45/45/45 44/44/44 52/52/52
f 50/50/50 49/49/49 37/37/37 36/36/36
f 26/26/26 31/31/31 75/75/75 27/27/27
f 38/38/38 76/76/76 77/77/77 46/46/46
f 76/76/76 49/49/49 52/52/52 77/77/77
f 30/30/30 33/33/33 74/74/74 31/31/31
f 75/75/75 35/35/35 34/34/34 27/27/27
f 78/78/78 79/79/79 65/65/65 64/64/64
f 80/80/80 78/78/78 64/64/64 63/63/63
f 81/81/81 80/80/80 63/63/63 62/62/62
f 79/79/79 81/81/81 62/62/62 65/65/65
f 41/41/41 53/53/53 79/79/79 78/78/78
f 42/42/42 41/41/41 78/78/78 80/80/80
f 48/48/48 42/42/42 80/80/80 81/81/81
f 53/53/53 48/48/48 81/81/81 79/79/79
f 82/82/82 83/83/83 69/69/69 68/68/68
f 84/84/84 82/82/82 68/68/68 67/67/67
f 85/85/85 84/84/84 67/67/67 66/66/66
f 83/83/83 85/85/85 66/66/66 69/69/69
f 33/33/33 30/30/30 24/24/24 23/23/23
f 30/30/30 26/26/26 42/42/42 24/24/24
f 26/26/26 29/29/29 43/43/43 42/42/42
f 71/71/71 70/70/70 40/40/40 39/39/39
f 72/72/72 71/71/71 39/39/39 25/25/25
f 73/73/73 72/72/72 25/25/25 47/47/47
f 70/70/70 73/73/73 47/47/47 40/40/40
f 32/32/32 28/28/28 51/51/51 50/50/50
f 34/34/34 32/32/32 50/50/50 36/36/36
f 27/27/27 34/34/34 36/36/36 45/45/45
f 28/28/28 27/27/27 45/45/45 51/51/51
f 52/52/52 44/44/44 61/61/61 60/60/60
f 77/77/77 52/52/52 60/60/60 59/59/59
f 46/46/46 77/77/77 59/59/59 58/58/58
f 44/44/44 46/46/46 58/58/58 61/61/61
f 37/37/37 49/49/49 57/57/57 56/56/56
f 38/38/38 37/37/37 56/56/56 55/55/55
f 76/76/76 38/38/38 55/55/55 54/54/54
f 49/49/49 76/76/76 54/54/54 57/57/57
f 31/31/31 74/74/74 83/83/83 82/82/82
f 75/75/75 31/31/31 82/82/82 84/84/84
f 35/35/35 75/75/75 84/84/84 85/85/85
f 74/74/74 35/35/35 85/85/85 83/83/83
f 29/29/29 33/33/33 23/23/23 43/43/43
f 86/86/86 87/87/87 88/88/88
f 86/86/86 88/88/88 89/89/89
f 88/88/88 87/87/87 90/90/90
f 91/91/91 92/92/92 93/93/93
f 94/94/94 93/93/93 95/95/95
f 88/88/88 90/90/90 96/96/96
f 97/97/97 96/96/96 92/92/92
f 98/98/98 99/99/99 100/100/100
f 101/101/101 98/98/98 102/102/102
f 103/103/103 101/101/101 102/102/102
f 104/104/104 103/103/103 105/105/105
f 99/99/99 104/104/104 100/100/100
f 100/100/100 104/104/104 105/105/105
f 105/105/105 103/103/103 102/102/102
f 102/102/102 100/100/100 105/105/105
f 102/102/102 98/98/98 100/100/100
f 92/92/92 104/104/104 99/99/99
f 92/92/92 96/96/96 104/104/104
f 96/96/96 103/103/103 104/104/104
f 96/96/96 90/90/90 103/103/103
f 106/106/106 101/101/101 103/103/103
f 95/95/95 98/98/98 101/101/101
f 95/95/95 93/93/93 98/98/98
f 93/93/93 99/99/99 98/98/98
f 93/93/93 92/92/92 99/99/99
f 97/97/97 88/88/88 96/96/96
f 90/90/90 106/106/106 103/103/103
f 90/90/90 87/87/87 106/106/106
f 87/87/87 107/107/107 106/106/106
f 106/106/106 95/95/95 101/101/101
f 106/106/106 107/107/107 95/95/95
f 107/107/107 94/94/94 95/95/95
f 94/94/94 91/91/91 93/93/93
f 91/91/91 97/97/97 92/92/92
f 89/89/89 88/88/88 97/97/97
f 87/87/87 86/86/86 107/107/107
f 86/86/86 94/94/94 107/107/107
f 91/91/91 89/89/89 97/97/97
f 86/86/86 89/89/89 94/94/94
f 89/89/89 91/91/91 94/94/94
f 108/108/108 109/109/109 110/110/110
f 108/108/108 110/110/110 111/111/111
f 110/110/110 109/109/109 112/112/112
f 113/113/113 114/114/114 115/115/115
f 116/116/116 115/115/115 117/117/117
f 110/110/110 112/112/112 118/118/118
f 119/119/119 118/118/118 114/114/114
f 120/120/120 121/121/121 122/122/122
f 123/123/123 120/120/120 124/124/124
f 125/125/125 123/123/123 124/124/124
f 126/126/126 125/125/125 127/127/127
f 121/121/121 126/126/126 122/122/122
f 122/122/122 126/126/126 127/127/127
f 127/127/127 125/125/125 124/124/124
f 124/124/124 122/122/122 127/127/127
f 124/124/124 120/120/120 122/122/122
f 114/114/114 126/126/126 121/121/121
f 114/114/114 118/118/118 126/126/126
f 118/118/118 125/125/125 126/126/126
f 118/118/118 112/112/112 125/125/125
f 128/128/128 123/123/123 125/125/125
f 117/117/117 120/120/120 123/123/123
f 117/117/117 115/115/115 120/120/120
f 115/115/115 121/121/121 120/120/120
f 115/115/115 114/114/114 121/121/121
f 119/119/119 110/110/110 118/118/118
f 112/112/112 128/128/128 125/125/125
f 112/112/112 109/109/109 128/128/128
f 109/109/109 129/129/129 128/128/128
f 128/128/128 117/117/117 123/123/123
f 128/128/128 129/129/129 117/117/117
f 129/129/129 116/116/116 117/117/117
f 116/116/116 113/113/113 115/115/115
f 113/113/113 119/119/119 114/114/114
f 111/111/111 110/110/110 119/119/119
f 109/109/109 108/108/108 129/129/129
f 108/108/108 116/116/116 129/129/129
f 113/113/113 111/111/111 119/119/119
f 108/108/108 111/111/111 116/116/116
f 111/111/111 113/113/113 116/116/116
f 130/130/130 131/131/131 132/132/132
f 130/130/130 132/132/132 133/133/133
f 132/132/132 131/131/131 134/134/134
f 135/135/135 136/136/136 137/137/137
f 138/138/138 137/137/137 139/139/139
f 132/132/132 134/134/134 140/140/140
f 141/141/141 140/140/140 136/136/136
f 142/142/142 143/143/143 144/144/144
f 145/145/145 142/142/142 146/146/146
f 147/147/147 145/145/145 146/146/146
f 148/148/148 147/147/147 149/149/149
f 143/143/143 148/148/148 144/144/144
f 144/144/144 148/148/148 149/149/149
f 149/149/149 147/147/147 146/146/146
f 146/146/146 144/144/144 149/149/149
f 146/146/146 142/142/142 144/144/144
f 136/136/136 148/148/148 143/143/143
f 136/136/136 140/140/140 148/148/148
f 140/140/140 147/147/147 148/148/148
f 140/140/140 134/134/134 147/147/147
f 150/150/150 145/145/145 147/147/147
f 139/139/139 142/142/142 145/145/145
f 139/139/139 137/137/137 142/142/142
f 137/137/137 143/143/143 142/142/142
f 137/137/137 136/136/136 143/143/143
f 141/141/141 132/132/132 140/140/140
f 134/134/134 150/150/150 147/147/147
f 134/134/134 131/131/131 150/150/150
f 131/131/131 151/151/151 150/150/150
f 150/150/150 139/139/139 145/145/145
f 150/150/150 151/151/151 139/139/139
f 151/151/151 138/138/138 139/139/139
f 138/138/138 135/135/135 137/137/137
f 135/135/135 141/141/141 136/136/136
f 133/133/133 132/132/132 141/141/141
f 131/131/131 130/130/130 151/151/151
f 130/130/130 138/138/138 151/151/151
f 135/135/135 133/133/133 141/141/141
f 130/130/130 133/133/133 138/138/138
f 133/133/133 135/135/135 138/138/138
